<?xml version="1.0" encoding="UTF-8" standalone="no"?>
<!-- Created with Inkscape (http://www.inkscape.org/) -->

<svg
   width="468px"
   height="468px"
   viewBox="0 0 468 468"
   id="SVGRoot"
   version="1.1"
   enable-background="new"
   inkscape:version="1.3 (0e150ed6c4, 2023-07-21)"
   sodipodi:docname="instagram-logo.svg"
   xmlns:inkscape="http://www.inkscape.org/namespaces/inkscape"
   xmlns:sodipodi="http://sodipodi.sourceforge.net/DTD/sodipodi-0.dtd"
   xmlns="http://www.w3.org/2000/svg"
   xmlns:svg="http://www.w3.org/2000/svg">
  <defs
     id="defs4787">
    <clipPath
       clipPathUnits="userSpaceOnUse"
       id="patternClipPath">
      <rect
         y="0"
         x="0"
         height="468"
         width="468"
         id="clipPathRect"
         style="color:#000000;display:inline;overflow:visible;visibility:visible;opacity:1;fill:#ffff00;fill-opacity:1;fill-rule:nonzero;stroke:none;stroke-width:20;stroke-linecap:square;stroke-linejoin:miter;stroke-miterlimit:4;stroke-dasharray:none;stroke-dashoffset:1.09889996;stroke-opacity:1;marker:none;enable-background:accumulate" />
    </clipPath>
    <marker
       inkscape:stockid="Arrow2Mend"
       orient="auto"
       refY="0.0"
       refX="0.0"
       id="Arrow2Mend"
       style="overflow:visible;"
       inkscape:isstock="true">
      <path
         id="path19572"
         style="fill-rule:evenodd;stroke-width:0.625;stroke-linejoin:round;stroke:#000000;stroke-opacity:1;fill:#000000;fill-opacity:1"
         d="M 8.7185878,4.0337352 L -2.2072895,0.016013256 L 8.7185884,-4.0017078 C 6.9730900,-1.6296469 6.9831476,1.6157441 8.7185878,4.0337352 z "
         transform="scale(0.6) rotate(180) translate(0,0)" />
    </marker>
  </defs>
  <sodipodi:namedview
     id="base"
     pagecolor="#ffffff"
     bordercolor="#666666"
     borderopacity="1.0"
     inkscape:pageopacity="0"
     inkscape:pageshadow="2"
     inkscape:zoom="0.42735043"
     inkscape:cx="-239.85"
     inkscape:cy="438.75"
     inkscape:document-units="px"
     inkscape:current-layer="SVGRoot"
     showgrid="false"
     inkscape:pagecheckerboard="true"
     inkscape:window-width="1920"
     inkscape:window-height="1164"
     inkscape:window-x="-11"
     inkscape:window-y="-11"
     inkscape:window-maximized="1"
     inkscape:blackoutopacity="0.0"
     showborder="true"
     inkscape:showpageshadow="true"
     borderlayer="false"
     inkscape:deskcolor="#d1d1d1" />
  <inkscape:_templateinfo
     id="_templateinfo10">
    <inkscape:_name
       id="_name12">Seamless Pattern</inkscape:_name>
    <inkscape:_shortdesc
       id="_shortdesc14">Seamless Pattern</inkscape:_shortdesc>
    <inkscape:_keywords
       id="_keywords16">Seamless Pattern</inkscape:_keywords>
  </inkscape:_templateinfo>
  <g
     id="g743"
     transform="matrix(0.96009099,0,0,0.95876532,738.30912,-17.196514)"
     style="stroke-width:1.04229">
    <path
       fill="#e40a89"
       d="m -578.775,27.323488 q 0.18,0.23 0.29,0.39 0.34,0.5 -0.23,0.32 -0.14,-0.04 -0.21,0.16 -0.08,0.22 0.15,0.25 0.78,0.09 1.51,0.07 0.5,-0.02 0,0.03 -0.16,0.01 -0.18,0.2 -0.02,0.24 0.22,0.21 0.39,-0.06 0.41,0.37 a 0.71,0.68 21.9 0 0 0.19,0.42 q 2.69,2.77 5.7,4.9 c 1.12,0.78 1.8,1.9 2.89,2.7 q 1.26,0.93 2.37,1.97 4.02,3.77 7.85,7.27 4,3.68 6.73,7.08 3.05,3.81 6.73,7.95 a 0.44,0.42 69.2 0 0 0.29,0.14 q 0.15,0.01 0.31,-0.02 0.34,-0.06 0.59,0.18 l 1.77,1.66 q 0.45,0.43 -0.05,0.81 -0.22,0.17 -0.32,0.44 -0.05,0.14 0.11,0.13 0.14,-0.02 0.27,0.01 0.45,0.1 0.35,0.55 -0.27,1.23 0.37,2.11 0.39,0.54 -0.27,0.57 -5.07,0.24 -9.27,2.05 -16.07,0.6 -32.52,0.68 c -17.21,0.09 -33.67,0.8 -50.5,1.26 q -2.65,0.07 -10.72,1.14 l -0.33,-0.37 q -0.55,-0.59 0.25,-0.7 0.14,-0.02 0.28,-0.06 0.32,-0.09 0.06,-0.3 -1.26,-1.03 -2.92,-0.51 -0.18,0.06 -0.22,-0.13 -0.02,-0.12 0.03,-0.27 0.06,-0.15 -0.1,-0.16 -1.07,-0.07 -2.22,-0.57 -0.19,-0.08 -0.18,-0.31 0.02,-0.5 0.51,-0.4 0.3,0.06 0.57,-0.05 0.49,-0.19 0.3,-0.68 -1.02,-2.61 -2.4,-4.49 -1.41,-1.95 -2.53,-4.09 -1.18,-2.27 -2.36,-4.54 -1.08,-2.07 -2.62,-4.34 -1.58,-2.31 -2.04,-4.68 -0.31,-1.57 -0.91,-3.03 -0.67,-1.63 -0.14,-3.45 a 1.86,1.86 0 0 0 -2.07,-2.36 q -1.43,0.22 -2.66,-0.8 -0.46,-0.38 -1.03,-0.56 -1.05,-0.31 -0.89,-0.92 c 12.27,-3.97 24.56,-5.74 37.34,-6.98 q 13.03,-1.27 51.45,-1.25 z"
       id="path125"
       style="stroke-width:1.04229" />
    <path
       fill="#a1268e"
       d="m -578.775,27.323488 69.51,0.41 q -0.17,0.3 0.28,0.82 0.21,0.24 -0.05,0.42 -0.11,0.09 -0.24,0.1 -1.27,0.15 0.01,0.2 c 1.01,0.05 1.9,0.24 2.56,1.06 q 1.51,1.88 3.74,3.41 2.04,1.41 4.15,3.55 4.6,4.67 7.08,8.6 1.18,1.87 2.64,3.42 0.39,0.41 0.51,0.96 c 0.32,1.46 1.84,1.95 2.8,2.95 q 3.11,3.25 6.23,6.51 0.22,0.23 2.47,2.92 1.24,1.47 2.78,2.65 c 1.06,0.8 1.25,1.65 1.38,2.87 q 0.06,0.53 -0.47,0.55 -1.67,0.05 -3.65,0.87 -0.02,0.01 -0.03,-0.01 -0.03,-0.06 -0.03,-0.02 2.42,-0.27 4.69,0.27 l -77.79,0.41 q 4.2,-1.81 9.27,-2.05 0.66,-0.03 0.27,-0.57 -0.64,-0.88 -0.37,-2.11 0.1,-0.45 -0.35,-0.55 -0.13,-0.03 -0.27,-0.01 -0.16,0.01 -0.11,-0.13 0.1,-0.27 0.32,-0.44 0.5,-0.38 0.05,-0.81 l -1.77,-1.66 q -0.25,-0.24 -0.59,-0.18 -0.16,0.03 -0.31,0.02 a 0.44,0.42 69.2 0 1 -0.29,-0.14 q -3.68,-4.14 -6.73,-7.95 -2.73,-3.4 -6.73,-7.08 -3.83,-3.5 -7.85,-7.27 -1.11,-1.04 -2.37,-1.97 c -1.09,-0.8 -1.77,-1.92 -2.89,-2.7 q -3.01,-2.13 -5.7,-4.9 a 0.71,0.68 21.9 0 1 -0.19,-0.42 q -0.02,-0.43 -0.41,-0.37 -0.24,0.03 -0.22,-0.21 0.02,-0.19 0.18,-0.2 0.5,-0.05 0,-0.03 -0.73,0.02 -1.51,-0.07 -0.23,-0.03 -0.15,-0.25 0.07,-0.2 0.21,-0.16 0.57,0.18 0.23,-0.32 -0.11,-0.16 -0.29,-0.39 z"
       id="path126"
       style="stroke-width:1.04229" />
    <path
       fill="#5e2f92"
       d="m -479.015,27.473488 5.17,1.41 q 0.04,0.01 0.02,0.05 -0.07,0.12 -0.16,0.2 -0.26,0.24 0.08,0.14 0.75,-0.22 1.07,0.44 0.21,0.45 0.56,0.82 1.26,1.34 2.58,2.64 0.34,0.34 0.82,0.39 0.83,0.07 1.34,0.71 1.44,1.8 3.23,3.33 1.39,1.2 2.53,2.57 2.81,3.37 5.88,6.86 0.32,0.37 0.34,0.85 0.07,1.62 1.17,2.84 4.78,5.29 8.8,9.43 0.84,0.87 2.05,1.7 0.94,0.64 1.23,1.83 0.11,0.48 0.51,0.77 0.92,0.68 1.39,1.75 0.17,0.42 0.61,0.53 0.77,0.2 1.04,1.17 0.16,0.57 -0.43,0.61 -7.77,0.56 -15.49,0.47 -2.04,-0.02 -4.12,0.46 a 0.02061553,0.02061553 0 0 0 0.01,0.04 q 1.03,-0.19 1.88,0.41 l -15.51,-0.06 q -2.27,-0.54 -4.69,-0.27 0,-0.04 0.03,0.02 0.01,0.02 0.03,0.01 1.98,-0.82 3.65,-0.87 0.53,-0.02 0.47,-0.55 c -0.13,-1.22 -0.32,-2.07 -1.38,-2.87 q -1.54,-1.18 -2.78,-2.65 -2.25,-2.69 -2.47,-2.92 -3.12,-3.26 -6.23,-6.51 c -0.96,-1 -2.48,-1.49 -2.8,-2.95 q -0.12,-0.55 -0.51,-0.96 -1.46,-1.55 -2.64,-3.42 -2.48,-3.93 -7.08,-8.6 -2.11,-2.14 -4.15,-3.55 -2.23,-1.53 -3.74,-3.41 c -0.66,-0.82 -1.55,-1.01 -2.56,-1.06 q -1.28,-0.05 -0.01,-0.2 0.13,-0.01 0.24,-0.1 0.26,-0.18 0.05,-0.42 -0.45,-0.52 -0.28,-0.82 z"
       id="path127"
       style="stroke-width:1.04229" />
    <path
       fill="#2e3590"
       d="m -479.015,27.473488 q 35.31,-0.43 56.04,0.95 15.04,0.99 27.39,3.48 c 37.63,7.59 70.8,30.48 87.78,65.22 q 8.37,17.150002 11.85,35.380002 2.94,15.41 4.11,31.9 1.13,15.86 0.66,45.78 l -0.19,8.3 q -0.01,0.2 -0.2,0.21 l -0.3,0.01 q -0.05,0.01 -0.06,-0.05 -0.29,-4.32 -0.73,-8.64 0.07,0.2 -0.04,0.38 -0.24,0.35 -0.3,-0.07 -0.16,-1.14 -1.14,-2.01 -2.32,-2.06 -4.59,-4.26 -0.14,-0.14 -0.05,-0.33 0.03,-0.05 0.09,-0.06 0.4,-0.04 0.1,-0.34 -0.3,-0.28 -0.57,-0.6 -0.32,-0.37 -0.79,-0.47 -1.19,-0.25 -1.23,-1.5 a 1.41,1.45 20.3 0 0 -0.44,-0.99 c -1.06,-1 -1.78,-2.14 -2.91,-3.12 q -3.37,-2.91 -6.47,-5.62 -0.41,-0.35 -0.94,-0.5 -1.62,-0.45 -2.31,-2.11 -0.45,-1.09 -1.39,-1.77 -0.81,-0.58 -1.45,-1.34 -4.39,-5.15 -9.05,-10.04 -0.42,-0.43 -0.61,-0.91 c -0.53,-1.28 -2.24,-2.46 -3.25,-3.55 a 1.2,1.27 79.4 0 0 -0.48,-0.31 l -1.25,-0.47 q -0.46,-0.16 -0.57,-0.64 l -0.5,-2.1 q -0.01,-0.04 -0.02,0 -0.23,2.93 0.31,5.65 0.64,3.24 0.64,5.55 0,12.84 -0.8,24.07 -0.01,0.16 -0.16,0.14 h -0.01 q -0.18,-0.01 -0.16,-0.18 0.31,-2.97 -0.17,-5.91 -0.08,-21.27 -2.33,-42.45 c -1.85,-17.39 -6.32,-33.86 -15.67,-47.8 -11.13,-16.590002 -28.11,-26.450002 -47.26,-30.820002 q -12.52,-2.86 -22.28,-4 -16.99,-1.98 -36.19,-1.64 -0.85,-0.6 -1.88,-0.41 a 0.02061553,0.02061553 0 0 1 -0.01,-0.04 q 2.08,-0.48 4.12,-0.46 7.72,0.09 15.49,-0.47 0.59,-0.04 0.43,-0.61 -0.27,-0.97 -1.04,-1.17 -0.44,-0.11 -0.61,-0.53 -0.47,-1.07 -1.39,-1.75 -0.4,-0.29 -0.51,-0.77 -0.29,-1.19 -1.23,-1.83 -1.21,-0.83 -2.05,-1.7 -4.02,-4.14 -8.8,-9.43 -1.1,-1.22 -1.17,-2.84 -0.02,-0.48 -0.34,-0.85 -3.07,-3.49 -5.88,-6.86 -1.14,-1.37 -2.53,-2.57 -1.79,-1.53 -3.23,-3.33 -0.51,-0.64 -1.34,-0.71 -0.48,-0.05 -0.82,-0.39 -1.32,-1.3 -2.58,-2.64 -0.35,-0.37 -0.56,-0.82 -0.32,-0.66 -1.07,-0.44 -0.34,0.1 -0.08,-0.14 0.09,-0.08 0.16,-0.2 0.02,-0.04 -0.02,-0.05 z"
       id="path128"
       style="stroke-width:1.04229" />
    <path
       fill="#ea1a57"
       d="m -667.565,35.553488 q -0.16,0.61 0.89,0.92 0.57,0.18 1.03,0.56 1.23,1.02 2.66,0.8 a 1.86,1.86 0 0 1 2.07,2.36 q -0.53,1.82 0.14,3.45 0.6,1.46 0.91,3.03 0.46,2.37 2.04,4.68 1.54,2.27 2.62,4.34 1.18,2.27 2.36,4.54 1.12,2.14 2.53,4.09 1.38,1.88 2.4,4.49 0.19,0.49 -0.3,0.68 -0.27,0.11 -0.57,0.05 -0.49,-0.1 -0.51,0.4 -0.01,0.23 0.18,0.31 1.15,0.5 2.22,0.57 0.16,0.01 0.1,0.16 -0.05,0.15 -0.03,0.27 0.04,0.19 0.22,0.13 1.66,-0.52 2.92,0.51 0.26,0.21 -0.06,0.3 -0.14,0.04 -0.28,0.06 -0.8,0.11 -0.25,0.7 l 0.33,0.37 c -28.26,4.29 -50.24,19.98 -61.67,46.160002 q -1.28,2.93 -4.47,12.36 -1.85,2.39 -2.92,5.65 -0.19,0.58 -0.25,2.37 -0.05,1.45 -0.82,2.35 -0.35,0.4 -0.3,0.92 0.12,1.28 -0.04,2.41 -0.09,0.58 -0.16,0 -0.02,-0.13 -0.08,-0.25 -0.15,-0.33 -0.32,-0.01 -0.57,1.06 -0.26,2.01 0.13,0.41 0.06,0.83 -0.19,1.27 -0.25,2.46 -0.01,0.24 -0.18,0.07 -0.05,-0.05 -0.07,-0.12 -0.16,-0.83 -0.43,-0.03 -0.23,0.68 -0.3,1.56 -0.02,0.27 -0.21,0.09 -0.04,-0.04 -0.04,-0.09 0,-0.8 -0.46,-0.14 -0.12,0.16 -0.11,0.35 0.04,0.75 -0.38,0.13 -2.38,-3.47 -4.94,-7.07 -1.79,-2.51 -4.35,-4.89 -2.37,-2.2 -4.85,-4.66 -0.27,-0.27 -0.23,-0.65 0.03,-0.25 0.22,-0.34 0.75,-0.35 0.07,-0.82 c -0.71,-0.5 -1.58,-0.99 -2.06,-1.74 q -0.86,-1.33 -2.25,-2.11 a 2.37,2.36 88.8 0 1 -0.85,-0.82 q -1.48,-2.44 -4.04,-4.13 -0.51,-0.33 -0.81,-0.85 -0.95,-1.68 -2.54,-2.94 -0.38,-0.31 -0.62,-0.74 l -0.27,-0.49 q -0.36,-0.65 -0.7,0 l -0.13,0.25 q -0.27,0.49 -0.63,0.06 -0.32,-0.39 -0.76,-0.11 -0.56,0.34 -0.47,-0.3 0.07,-0.46 -0.17,-0.8 -0.64,-0.93 -0.52,0.2 0.01,0.05 -0.03,0.09 -0.66,0.73 -0.42,-0.25 0.61,-2.48 1.3,-4.93 0.12,-0.43 0.57,-0.41 0.16,0.01 0.24,-0.13 0.22,-0.36 0.11,-0.76 -0.22,-0.79 0.1,-1.65 2.75,-7.37 6.43,-15.330002 0.59,-1.28 1.28,-2.21 c 1.26,-1.7 1.96,-3.8 2.9,-5.69 q 0.17,-0.33 -0.15,-0.54 l -0.39,-0.25 c 15.74,-25.59 40.39,-43.33 69,-51.84 z"
       id="path129"
       style="stroke-width:1.04229" />
    <path
       fill="#ea203b"
       d="m -737.565,86.886118 0.39,0.25 q 0.32,0.21 0.15,0.54 c -0.94,1.89 -1.64,3.99 -2.9,5.69 q -0.69,0.93 -1.28,2.21 -3.68,7.960002 -6.43,15.330002 -0.32,0.86 -0.1,1.65 0.11,0.4 -0.11,0.76 -0.08,0.14 -0.24,0.13 -0.45,-0.02 -0.57,0.41 -0.69,2.45 -1.3,4.93 -0.24,0.98 0.42,0.25 0.04,-0.04 0.03,-0.09 -0.12,-1.13 0.52,-0.2 0.24,0.34 0.17,0.8 -0.09,0.64 0.47,0.3 0.44,-0.28 0.76,0.11 0.36,0.43 0.63,-0.06 l 0.13,-0.25 q 0.34,-0.65 0.7,0 l 0.27,0.49 q 0.24,0.43 0.62,0.74 1.59,1.26 2.54,2.94 0.3,0.52 0.81,0.85 2.56,1.69 4.04,4.13 a 2.37,2.36 88.8 0 0 0.85,0.82 q 1.39,0.78 2.25,2.11 c 0.48,0.75 1.35,1.24 2.06,1.74 q 0.68,0.47 -0.07,0.82 -0.19,0.09 -0.22,0.34 -0.04,0.38 0.23,0.65 2.48,2.46 4.85,4.66 2.56,2.38 4.35,4.89 2.56,3.6 4.94,7.07 0.42,0.62 0.38,-0.13 -0.01,-0.19 0.11,-0.35 0.46,-0.66 0.46,0.14 0,0.05 0.04,0.09 0.19,0.18 0.21,-0.09 0.07,-0.88 0.3,-1.56 0.27,-0.8 0.43,0.03 0.02,0.07 0.07,0.12 0.17,0.17 0.18,-0.07 0.06,-1.19 0.25,-2.46 0.07,-0.42 -0.06,-0.83 -0.31,-0.95 0.26,-2.01 0.17,-0.32 0.32,0.01 0.06,0.12 0.08,0.25 0.07,0.58 0.16,0 0.16,-1.13 0.04,-2.41 -0.05,-0.52 0.3,-0.92 0.77,-0.9 0.82,-2.35 0.06,-1.79 0.25,-2.37 1.07,-3.26 2.92,-5.65 -4.39,20.12 -5.34,40.05 c -1.55,32.8 -1.35,64.27 -1.3,96.58 q 0.01,6.89 0.25,13.73 0.22,6.57 0.35,13.15 l -0.53,-0.01 q -0.16,0 -0.16,-0.16 -1.21,-22.88 -1.13,-44.43 0,-1.57 -0.92,-3.22 -0.17,-0.3 -0.36,-0.02 -0.09,0.13 -0.02,0.26 0.46,1.04 -0.35,0.25 -1.33,-1.3 -2.71,-2.27 -0.38,-0.27 -0.12,-0.66 0.11,-0.16 0.08,-0.36 -0.07,-0.44 -0.39,-0.75 c -2.13,-2.13 -3.55,-4.7 -5.64,-6.88 q -1.75,-1.83 -3.48,-3.75 -1.39,-1.54 -1.36,-2.77 0.01,-0.5 -0.32,-0.87 -1.72,-1.93 -3.49,-3.59 -0.82,-0.77 -0.65,-2 0.07,-0.5 -0.33,-0.81 -0.68,-0.53 -1.49,-0.8 -0.47,-0.15 -0.77,-0.54 l -5.31,-6.94 q -0.29,-0.38 -0.76,-0.48 -0.14,-0.03 -0.27,-0.06 a 0.74,0.72 2.6 0 1 -0.54,-0.58 q -0.15,-0.82 -0.86,-1.3 -0.43,-0.29 -0.68,-0.76 -0.53,-1 -1.4,-1.69 -0.91,-0.74 -1.67,-1.71 -1.31,-1.7 -2.59,-3.19 -0.3,-0.34 -0.8,-0.4 -0.55,-0.07 -0.72,-0.6 -0.28,-0.9 -0.94,-1.54 -0.49,-0.49 -0.64,0.19 l -0.73,3.43 q -0.07,0.32 -0.15,0.01 -0.22,-0.77 -0.3,-1.75 0.03,-17.23 0.17,-34.46 0.11,-13.65 4.22,-36.24 4.34,-23.87 17.67,-46.510002 z"
       id="path132"
       style="stroke-width:1.04229" />
    <circle
       fill="#2e3590"
       cx="-399.965"
       cy="136.4635"
       r="28.23"
       id="circle133"
       style="stroke-width:1.04229" />
    <path
       fill="#e40a89"
       d="m -503.175,142.99349 q -0.48,0.64 0.31,1.4 0.61,0.59 1.39,1.06 0.43,0.26 0.71,0.68 1.68,2.57 5.32,5.4 1.16,0.91 4.29,4.3 0.27,0.28 0.26,0.68 -0.01,0.22 0.15,0.39 2.85,3.04 5.68,5.42 c 1.02,0.86 1.41,1.75 2.13,2.81 q 0.64,0.94 1.51,1.71 3.26,2.89 5.51,6.38 0.93,1.43 2.08,2.32 1.28,0.99 2.23,2.07 1.49,1.68 3.12,3.36 0.61,0.63 1.04,1.41 c 0.62,1.12 1.87,1.99 2.67,3.02 q 2.44,3.17 5.25,5.59 0.38,0.33 0.53,0.8 c 0.33,0.97 1.41,1.5 1.88,2.03 q 3.32,3.65 6.71,7.18 c 0.82,0.86 1.19,2.12 2.12,2.94 q 1.41,1.25 1.49,1.33 7.55,8.24 15.37,17.95 a 38.63,35.92 54.9 0 0 3.7,4.01 q 4.32,4.09 8.26,8.88 3.63,4.41 8.02,9.01 0.88,0.91 1.36,1.74 0.24,0.41 0.66,0.63 0.22,0.12 0.44,0.24 0.41,0.24 0.71,0.65 1.16,1.57 2.22,3.26 0.06,0.09 0.13,0.02 0.25,-0.22 0.63,-0.06 a 0.46,0.47 15.7 0 1 0.28,0.51 q -0.5,2.89 0.46,4.05 1.16,32.36 -13.31,60.97 l -5.1,5.93 q -0.42,0.49 -0.79,-0.04 -2.5,-3.56 -5.07,-7.01 -2.58,-3.46 -5.33,-6.01 -3.48,-3.23 -6.6,-7.53 c -0.49,-0.67 -0.38,-1.37 -0.92,-2.1 q -2.42,-3.3 -5.11,-6.63 -0.37,-0.46 -0.95,-0.35 -0.74,0.13 -1.39,-0.22 -0.64,-0.35 -0.44,-1.05 0.38,-1.34 -0.4,-2.66 -0.28,-0.48 -0.2,-1.03 0.11,-0.87 -0.59,-2.08 9.14,-29.44 -3.45,-56.96 -13.98,-30.56 -46.57,-42.01 0.13,-1.24 -1.98,-1.45 -2.1,-0.22 -2.11,-2.18 0,-0.49 -0.4,-0.77 -0.93,-0.66 -1.77,-1.42 -0.96,-0.88 -2.08,-1.38 -2.25,-0.99 -4.07,-3.02 -0.36,-0.41 -0.88,-0.58 -3.23,-1.08 -6.04,-2.93 c -1.24,-0.81 -2.32,-2.43 -3.92,-3.42 q -1.17,-0.72 -1.81,-1.95 -0.41,-0.81 -1.07,-1.41 -2.24,-2.04 -4.29,-4.14 -0.98,-1.01 -1.5,-2.5 -0.6,-1.69 -1.7,-3.2 -1.18,-1.63 -2.27,-3.39 -2.09,-3.39 -4.74,-6.6 -0.35,-0.42 -0.42,-0.95 -0.12,-0.92 -1,-1.32 -0.11,-0.04 -0.17,-0.14 -0.08,-0.13 -0.15,-0.27 -0.29,-0.61 0.38,-0.6 0.37,0 0.73,-0.12 0.76,-0.24 -0.01,-0.42 l -2.5,-0.57 q 20.81,-3.14 41.37,0.34 z"
       id="path134"
       style="stroke-width:1.04229" />
    <path
       fill="#ea1a57"
       d="m -544.545,142.65349 2.5,0.57 q 0.77,0.18 0.01,0.42 -0.36,0.12 -0.73,0.12 -0.67,-0.01 -0.38,0.6 0.07,0.14 0.15,0.27 0.06,0.1 0.17,0.14 0.88,0.4 1,1.32 0.07,0.53 0.42,0.95 2.65,3.21 4.74,6.6 1.09,1.76 2.27,3.39 1.1,1.51 1.7,3.2 0.52,1.49 1.5,2.5 2.05,2.1 4.29,4.14 0.66,0.6 1.07,1.41 0.64,1.23 1.81,1.95 c 1.6,0.99 2.68,2.61 3.92,3.42 q 2.81,1.85 6.04,2.93 0.52,0.17 0.88,0.58 1.82,2.03 4.07,3.02 1.12,0.5 2.08,1.38 0.84,0.76 1.77,1.42 0.4,0.28 0.4,0.77 0.01,1.96 2.11,2.18 2.11,0.21 1.98,1.45 -33.7,-10.31 -63.88,7.28 -2.69,-0.75 -5.22,2.17 -1.32,1.51 -2.52,2.34 -1.52,1.04 -3.1,2.23 -0.34,0.25 -0.75,0.31 -0.84,0.13 -1.55,0.61 -0.45,0.3 -0.88,-0.04 -0.37,-0.31 -0.63,-0.71 -0.25,-0.38 -0.69,-0.49 -1.05,-0.27 -1.3,-1.57 a 0.05,0.05 0 0 1 0.07,-0.06 q 0.25,0.07 0.51,0.04 a 0.25,0.25 0 0 0 0.18,-0.39 q -0.17,-0.27 -0.48,-0.24 a 0.45,0.52 62.3 0 1 -0.22,-0.05 q -0.64,-0.29 -0.32,-0.63 a 0.4,0.4 0 0 0 0.04,-0.51 c -1.19,-1.68 -2.6,-3.08 -3.65,-4.88 q -1.86,-3.19 -4.48,-5.95 -0.32,-0.34 -0.38,-0.81 l -0.15,-1.1 q -0.04,-0.32 -0.26,-0.55 -1.71,-1.76 -2.97,-3.79 -1.16,-1.86 -2.54,-3.47 -2.95,-3.41 -5.63,-6.7 -0.57,-0.7 0.09,-1.25 0.29,-0.25 -0.09,-0.32 l -0.7,-0.13 q 25.24,-20.89 57.73,-26.07 z"
       id="path135"
       style="stroke-width:1.04229" />
    <path
       fill="#a1268e"
       d="m -503.175,142.99349 q 3.83,0.52 5.45,0.92 47.78,11.65 73.86,51.88 17.35,26.75 19.31,60.37 -0.96,-1.16 -0.46,-4.05 a 0.46,0.47 15.7 0 0 -0.28,-0.51 q -0.38,-0.16 -0.63,0.06 -0.07,0.07 -0.13,-0.02 -1.06,-1.69 -2.22,-3.26 -0.3,-0.41 -0.71,-0.65 -0.22,-0.12 -0.44,-0.24 -0.42,-0.22 -0.66,-0.63 -0.48,-0.83 -1.36,-1.74 -4.39,-4.6 -8.02,-9.01 -3.94,-4.79 -8.26,-8.88 a 38.63,35.92 54.9 0 1 -3.7,-4.01 q -7.82,-9.71 -15.37,-17.95 -0.08,-0.08 -1.49,-1.33 c -0.93,-0.82 -1.3,-2.08 -2.12,-2.94 q -3.39,-3.53 -6.71,-7.18 c -0.47,-0.53 -1.55,-1.06 -1.88,-2.03 q -0.15,-0.47 -0.53,-0.8 -2.81,-2.42 -5.25,-5.59 c -0.8,-1.03 -2.05,-1.9 -2.67,-3.02 q -0.43,-0.78 -1.04,-1.41 -1.63,-1.68 -3.12,-3.36 -0.95,-1.08 -2.23,-2.07 -1.15,-0.89 -2.08,-2.32 -2.25,-3.49 -5.51,-6.38 -0.87,-0.77 -1.51,-1.71 c -0.72,-1.06 -1.11,-1.95 -2.13,-2.81 q -2.83,-2.38 -5.68,-5.42 -0.16,-0.17 -0.15,-0.39 0.01,-0.4 -0.26,-0.68 -3.13,-3.39 -4.29,-4.3 -3.64,-2.83 -5.32,-5.4 -0.28,-0.42 -0.71,-0.68 -0.78,-0.47 -1.39,-1.06 -0.79,-0.76 -0.31,-1.4 z"
       id="path136"
       style="stroke-width:1.04229" />
    <path
       fill="#5e2f92"
       d="m -291.185,210.18349 0.25,40.54 q -1.02,1.99 -1.83,-1.85 -0.06,-0.29 -0.32,-0.14 -0.22,0.12 -0.43,-0.02 -3.36,-2.14 -6.7,-5.34 a 0.43,0.43 0 0 0 -0.38,-0.12 q -0.25,0.04 -0.39,-0.15 -1.07,-1.44 -2.39,-2.82 -4.56,-4.75 -9.58,-9.97 -0.7,-0.73 -1.83,-2.63 -0.78,-1.31 -2.15,-2.5 -0.18,-0.15 -0.37,-0.01 -0.26,0.18 -0.45,-0.07 -2.3,-2.96 -4.9,-5.24 c -1.44,-1.26 -1.9,-3.04 -3.79,-3.84 a 1.3,1.29 0.7 0 1 -0.69,-0.7 q -0.26,-0.63 -0.24,-1.3 0.02,-0.39 -0.35,-0.54 -1.34,-0.56 -2.13,-1.76 -0.36,-0.54 -0.91,-0.65 -0.27,-0.06 -0.45,-0.28 -0.63,-0.79 -0.61,0.21 0.26,18.5 -1.31,37.29 l -0.04,-51.69 q 0.48,2.94 0.17,5.91 -0.02,0.17 0.16,0.18 h 0.01 q 0.15,0.02 0.16,-0.14 0.8,-11.23 0.8,-24.07 0,-2.31 -0.64,-5.55 -0.54,-2.72 -0.31,-5.65 0.01,-0.04 0.02,0 l 0.5,2.1 q 0.11,0.48 0.57,0.64 l 1.25,0.47 a 1.2,1.27 79.4 0 1 0.48,0.31 c 1.01,1.09 2.72,2.27 3.25,3.55 q 0.19,0.48 0.61,0.91 4.66,4.89 9.05,10.04 0.64,0.76 1.45,1.34 0.94,0.68 1.39,1.77 0.69,1.66 2.31,2.11 0.53,0.15 0.94,0.5 3.1,2.71 6.47,5.62 c 1.13,0.98 1.85,2.12 2.91,3.12 a 1.41,1.45 20.3 0 1 0.44,0.99 q 0.04,1.25 1.23,1.5 0.47,0.1 0.79,0.47 0.27,0.32 0.57,0.6 0.3,0.3 -0.1,0.34 -0.06,0.01 -0.09,0.06 -0.09,0.19 0.05,0.33 2.27,2.2 4.59,4.26 0.98,0.87 1.14,2.01 0.06,0.42 0.3,0.07 0.11,-0.18 0.04,-0.38 0.44,4.32 0.73,8.64 0.01,0.06 0.06,0.05 l 0.3,-0.01 q 0.19,-0.01 0.2,-0.21 z"
       id="path137"
       style="stroke-width:1.04229" />
    <path
       fill="#ea203b"
       d="m -564.655,194.66349 q -22.89,14.38 -33.18,39.02 -0.61,1.44 -1.47,4.52 -0.64,2.25 -1.54,4.52 0.45,-6.7 3.58,-12.77 a 1.68,1.68 0 0 0 -0.47,-2.09 l -1.52,-1.19 a 1.15,1.16 11.4 0 1 -0.41,-0.62 q -0.49,-1.89 -2.23,-2.51 -0.12,-0.04 -0.18,-0.14 -0.09,-0.14 0.07,-0.24 0.29,-0.18 0.06,-0.44 -0.18,-0.22 -0.43,-0.19 -0.21,0.03 -0.34,-0.13 -4.01,-5.02 -6.14,-6.81 -4.46,-3.74 -7.06,-8.1 -0.07,-0.11 -0.19,-0.18 -0.12,-0.06 -0.25,-0.03 -0.12,0.03 -0.19,-0.07 l -4.52,-6.08 q -0.27,-0.36 -0.21,-0.8 0.03,-0.25 -0.13,-0.45 -1.08,-1.35 -1.88,-2.52 a 1.56,1.55 41.2 0 0 -2.66,0.17 q -0.82,1.6 -2.03,2.87 -0.28,0.29 -0.38,0.67 -0.2,0.77 -1.44,0.81 10.68,-19.24 27.52,-33.16 l 0.7,0.13 q 0.38,0.07 0.09,0.32 -0.66,0.55 -0.09,1.25 2.68,3.29 5.63,6.7 1.38,1.61 2.54,3.47 1.26,2.03 2.97,3.79 0.22,0.23 0.26,0.55 l 0.15,1.1 q 0.06,0.47 0.38,0.81 2.62,2.76 4.48,5.95 c 1.05,1.8 2.46,3.2 3.65,4.88 a 0.4,0.4 0 0 1 -0.04,0.51 q -0.32,0.34 0.32,0.63 a 0.45,0.52 62.3 0 0 0.22,0.05 q 0.31,-0.03 0.48,0.24 a 0.25,0.25 0 0 1 -0.18,0.39 q -0.26,0.03 -0.51,-0.04 a 0.05,0.05 0 0 0 -0.07,0.06 q 0.25,1.3 1.3,1.57 0.44,0.11 0.69,0.49 0.26,0.4 0.63,0.71 0.43,0.34 0.88,0.04 0.71,-0.48 1.55,-0.61 0.41,-0.06 0.75,-0.31 1.58,-1.19 3.1,-2.23 1.2,-0.83 2.52,-2.34 2.53,-2.92 5.22,-2.17 z"
       id="path138"
       style="stroke-width:1.04229" />
    <path
       fill="#ee5031"
       d="m -600.845,242.72349 q -4.54,20.59 1.38,41.41 -2.98,-4.42 -3.19,-7.73 -0.18,-2.85 -0.75,-5.37 -0.6,-2.72 -0.44,-5.41 0.2,-3.36 -0.46,-6.06 -0.5,-2.04 -2.16,-3.55 -0.27,-0.25 0.02,-0.48 0.18,-0.15 0.07,-0.36 -1.28,-2.37 -3.07,-3.93 -1.8,-1.57 -3.46,-3.36 -3.3,-3.53 -6.28,-7.07 -3.41,-4.05 -7.2,-8 -1.49,-1.56 -2.56,-3.35 -1.08,-1.81 -2.5,-3.35 -0.37,-0.4 -0.46,-0.94 -0.13,-0.86 -0.84,-1.31 -1.2,-0.76 -1.69,-1.49 -1.74,-2.58 -4.14,-1.16 3.63,-10.17 8.78,-19.33 1.24,-0.04 1.44,-0.81 0.1,-0.38 0.38,-0.67 1.21,-1.27 2.03,-2.87 a 1.56,1.55 41.2 0 1 2.66,-0.17 q 0.8,1.17 1.88,2.52 0.16,0.2 0.13,0.45 -0.06,0.44 0.21,0.8 l 4.52,6.08 q 0.07,0.1 0.19,0.07 0.13,-0.03 0.25,0.03 0.12,0.07 0.19,0.18 2.6,4.36 7.06,8.1 2.13,1.79 6.14,6.81 0.13,0.16 0.34,0.13 0.25,-0.03 0.43,0.19 0.23,0.26 -0.06,0.44 -0.16,0.1 -0.07,0.24 0.06,0.1 0.18,0.14 1.74,0.62 2.23,2.51 a 1.15,1.16 11.4 0 0 0.41,0.62 l 1.52,1.19 a 1.68,1.68 0 0 1 0.47,2.09 q -3.13,6.07 -3.58,12.77 z"
       id="path140"
       style="stroke-width:1.04229" />
    <path
       fill="#f2692e"
       d="m -716.125,295.35349 q 0.4,31.82 1.5,63.63 c 0.15,4.51 0.74,9.68 0.96,14.61 l -1.02,-6.22 q -0.08,-0.47 -0.4,-0.82 -0.41,-0.46 -0.3,-1.15 0.03,-0.25 0.16,-0.03 0.06,0.11 0.25,-0.02 0.16,-0.11 0.09,-0.29 -0.75,-2.12 -0.45,-4.35 0.05,-0.33 -0.27,-0.22 -0.16,0.05 -0.22,0.18 -0.37,0.8 -0.54,-0.07 -0.48,-2.43 -1.86,-4.21 -0.87,-1.12 -3.98,-4.52 c -0.89,-0.97 -1.2,-2.09 -2.11,-3.03 q -2.85,-2.93 -5.68,-6.16 -3.58,-4.07 -7.21,-7.44 -1.8,-1.68 -3.24,-3.66 -1.46,-2.01 -3.04,-3.73 -1.34,-1.45 -2.43,-2.93 -1.08,-1.47 -2.67,-2.71 -0.35,-0.28 -0.49,-0.71 -0.27,-0.88 -0.94,-1.52 -2.72,-2.56 -4.07,-6.15 -0.17,-0.46 -0.62,-0.65 -0.96,-0.4 -1.32,-1.37 -0.17,-0.47 -0.65,-0.61 -0.58,-0.17 -0.47,-0.69 0.12,-0.56 -0.32,-0.94 -0.15,-0.13 -0.29,-0.07 -0.64,0.28 -0.58,-0.45 0.11,-1.23 -0.53,-1.21 l 0.24,-103.24 q 0.08,0.98 0.3,1.75 0.08,0.31 0.15,-0.01 l 0.73,-3.43 q 0.15,-0.68 0.64,-0.19 0.66,0.64 0.94,1.54 0.17,0.53 0.72,0.6 0.5,0.06 0.8,0.4 1.28,1.49 2.59,3.19 0.76,0.97 1.67,1.71 0.87,0.69 1.4,1.69 0.25,0.47 0.68,0.76 0.71,0.48 0.86,1.3 a 0.74,0.72 2.6 0 0 0.54,0.58 q 0.13,0.03 0.27,0.06 0.47,0.1 0.76,0.48 l 5.31,6.94 q 0.3,0.39 0.77,0.54 0.81,0.27 1.49,0.8 0.4,0.31 0.33,0.81 -0.17,1.23 0.65,2 1.77,1.66 3.49,3.59 0.33,0.37 0.32,0.87 -0.03,1.23 1.36,2.77 1.73,1.92 3.48,3.75 c 2.09,2.18 3.51,4.75 5.64,6.88 q 0.32,0.31 0.39,0.75 0.03,0.2 -0.08,0.36 -0.26,0.39 0.12,0.66 1.38,0.97 2.71,2.27 0.81,0.79 0.35,-0.25 -0.07,-0.13 0.02,-0.26 0.19,-0.28 0.36,0.02 0.92,1.65 0.92,3.22 -0.08,21.55 1.13,44.43 0,0.16 0.16,0.16 z"
       id="path141"
       style="stroke-width:1.04229" />
    <path
       fill="#a1268e"
       d="m -290.935,250.72349 q 0.09,47.91 -0.34,95.92 -0.08,7.91 -0.79,15.69 0,-0.74 -0.27,-1.51 -0.16,-0.44 -0.01,-0.9 0.49,-1.5 0.15,-3.01 -0.14,-0.6 -0.46,-0.07 -0.09,0.17 -0.37,0.14 -0.5,-0.05 -0.68,-0.53 l -0.61,-1.68 a 2.05,2.08 9 0 0 -0.67,-0.94 q -4.24,-3.32 -8.71,-6.81 -2.16,-1.7 -4.09,-3.66 -0.76,-0.79 -1.9,-0.27 -0.45,0.2 -0.8,-0.15 -3.92,-3.85 -8.04,-7.71 -0.55,-0.52 0.13,-0.21 0.13,0.06 0.26,0.09 0.06,0.01 0.12,0 0.19,-0.03 0.23,-0.15 0.09,-0.26 -0.12,-0.44 -6.14,-5.09 -12.32,-10.12 a 0.77,0.77 0 0 0 -1.13,0.19 q -0.06,0.09 0.01,0.43 -0.02,0.01 0.01,-0.01 0.11,-0.08 0.05,-0.19 -0.38,-0.74 -0.91,-1.59 -0.45,-0.72 -0.59,0.12 -0.14,0.81 -0.45,1.02 l 0.1,-76.08 q 1.57,-18.79 1.31,-37.29 -0.02,-1 0.61,-0.21 0.18,0.22 0.45,0.28 0.55,0.11 0.91,0.65 0.79,1.2 2.13,1.76 0.37,0.15 0.35,0.54 -0.02,0.67 0.24,1.3 a 1.3,1.29 0.7 0 0 0.69,0.7 c 1.89,0.8 2.35,2.58 3.79,3.84 q 2.6,2.28 4.9,5.24 0.19,0.25 0.45,0.07 0.19,-0.14 0.37,0.01 1.37,1.19 2.15,2.5 1.13,1.9 1.83,2.63 5.02,5.22 9.58,9.97 1.32,1.38 2.39,2.82 0.14,0.19 0.39,0.15 a 0.43,0.43 0 0 1 0.38,0.12 q 3.34,3.2 6.7,5.34 0.21,0.14 0.43,0.02 0.26,-0.15 0.32,0.14 0.81,3.84 1.83,1.85 z"
       id="path142"
       style="stroke-width:1.04229" />
    <path
       fill="#f2692e"
       d="m -599.465,284.13349 q 12.08,37.2 48.23,51.45 -1.07,0.47 1.02,1.17 2.22,0.75 4.48,1.41 0.5,0.15 0.97,0.41 c 0.68,0.39 1.64,0.15 2.48,0.41 q 4.46,1.39 9.3,1.75 4.52,0.33 8.94,0.86 0.5,0.06 0.59,0.55 0.31,1.67 1.94,2.54 a 1.55,1.55 0 0 1 0.67,0.7 q 2.13,4.25 5.41,7.4 0.33,0.31 0.38,0.76 0.06,0.5 0.57,0.71 0.51,0.2 0.87,0.62 1.82,2.18 5.03,5.38 4.16,4.15 7.74,10.08 a 0.01,0.01 0 0 0 0.02,0 q 0.05,-0.16 0.15,-0.23 0.25,-0.16 0.47,0.05 2.95,2.85 5.95,5.14 c 0.7,0.53 0.76,1.38 0.63,2.18 q -0.13,0.83 -0.91,0.5 -0.3,-0.13 -0.21,0.16 0.2,0.65 -0.47,0.56 l -1.99,-0.24 a 0.17,0.17 0 0 0 -0.19,0.2 q 0.03,0.16 0.01,0.32 -0.03,0.26 0.24,0.31 0.21,0.04 0.41,0.17 -15.01,3.42 -30.13,3.2 1.22,-0.53 -0.85,-1.2 -0.5,-0.17 -0.69,-0.66 -0.43,-1.13 -1.59,-0.77 a 0.09,0.09 0 0 1 -0.12,-0.07 q -0.03,-0.22 0.19,-0.2 a 0.21,0.21 0 0 0 0.21,-0.32 q -0.37,-0.61 -1.12,-0.79 a 1.45,1.46 76.5 0 1 -0.71,-0.43 q -2.58,-2.83 -5.15,-4.86 -0.64,-0.51 -1.11,-1.17 -0.31,-0.45 -0.66,-0.82 -4.83,-5.13 -9.71,-10.46 -7.38,-8.07 -15.11,-16.92 c -1.02,-1.16 -2.22,-1.88 -3.07,-3.2 q -0.85,-1.34 -1.98,-2.61 -3.52,-3.95 -6.89,-8.03 -0.25,-0.31 -0.56,-0.37 -0.36,-0.07 -0.6,-0.35 -1.79,-2.14 -3.62,-4.25 -0.22,-0.26 0.1,-0.15 0.05,0.01 0.1,0 0.62,-0.1 0.15,-0.53 -0.38,-0.34 -0.5,-0.84 -0.14,-0.59 -0.56,-1.05 -2.08,-2.32 -4.37,-4.04 -0.02,-0.01 -0.02,-0.04 v -0.4 q 0,-0.31 -0.25,-0.5 -1.69,-1.21 -2.47,-3.21 a 2.25,2.26 8.3 0 0 -0.68,-0.92 q -0.75,-0.61 -0.86,-1.6 -0.04,-0.31 -0.35,-0.34 -0.17,-0.02 -0.34,-0.01 -0.47,0.02 -0.68,-0.39 -0.59,-1.14 -1.42,-2.02 -4.07,-4.34 -8.72,-7.92 a 0.6,0.59 19.2 0 1 -0.23,-0.47 q 0.01,-0.13 0,-0.26 -0.04,-0.56 -0.48,-0.9 -2.26,-1.73 -4.01,-4.32 -0.21,-0.3 -0.56,-0.4 -0.5,-0.14 -0.75,-0.6 c -0.78,-1.41 -1.67,-2.71 -2.77,-3.89 q -4.13,-4.41 -7.04,-8.72 -1.63,-2.43 -3.48,-4.66 -1.87,-2.25 -3.68,-4.37 -0.25,-0.3 -0.59,-0.55 -0.4,-0.29 -0.65,-0.72 -1.73,-2.9 -4.69,-4.45 -0.44,-0.23 -0.66,-0.68 -0.98,-2.01 -2.58,-3.72 -1.45,-1.58 -2.94,-3.17 -0.89,-0.95 -1.59,-2.08 -0.75,-1.21 -1.91,-2.08 -0.95,-0.71 -1.81,-1.54 -0.87,-0.82 -1.73,-1.8 -0.09,-0.1 0.02,-0.17 0.05,-0.03 0.05,-0.08 0.02,-0.28 -0.28,-0.25 -1.27,0.15 -1.7,2.08 1.06,-16.74 6.36,-32.2 2.4,-1.42 4.14,1.16 0.49,0.73 1.69,1.49 0.71,0.45 0.84,1.31 0.09,0.54 0.46,0.94 1.42,1.54 2.5,3.35 1.07,1.79 2.56,3.35 3.79,3.95 7.2,8 2.98,3.54 6.28,7.07 1.66,1.79 3.46,3.36 1.79,1.56 3.07,3.93 0.11,0.21 -0.07,0.36 -0.29,0.23 -0.02,0.48 1.66,1.51 2.16,3.55 0.66,2.7 0.46,6.06 -0.16,2.69 0.44,5.41 0.57,2.52 0.75,5.37 0.21,3.31 3.19,7.73 z"
       id="path143"
       style="stroke-width:1.04229" />
    <path
       fill="#f89520"
       d="m -526.865,382.65349 q -33.99,-0.69 -62.02,-17.96 c -28.29,-17.44 -47.55,-46.02 -54.11,-78.55 q -3.08,-15.25 -1.94,-32.73 0.43,-1.93 1.7,-2.08 0.3,-0.03 0.28,0.25 0,0.05 -0.05,0.08 -0.11,0.07 -0.02,0.17 0.86,0.98 1.73,1.8 0.86,0.83 1.81,1.54 1.16,0.87 1.91,2.08 0.7,1.13 1.59,2.08 1.49,1.59 2.94,3.17 1.6,1.71 2.58,3.72 0.22,0.45 0.66,0.68 2.96,1.55 4.69,4.45 0.25,0.43 0.65,0.72 0.34,0.25 0.59,0.55 1.81,2.12 3.68,4.37 1.85,2.23 3.48,4.66 2.91,4.31 7.04,8.72 c 1.1,1.18 1.99,2.48 2.77,3.89 q 0.25,0.46 0.75,0.6 0.35,0.1 0.56,0.4 1.75,2.59 4.01,4.32 0.44,0.34 0.48,0.9 0.01,0.13 0,0.26 a 0.6,0.59 19.2 0 0 0.23,0.47 q 4.65,3.58 8.72,7.92 0.83,0.88 1.42,2.02 0.21,0.41 0.68,0.39 0.17,-0.01 0.34,0.01 0.31,0.03 0.35,0.34 0.11,0.99 0.86,1.6 a 2.25,2.26 8.3 0 1 0.68,0.92 q 0.78,2 2.47,3.21 0.25,0.19 0.25,0.5 v 0.4 q 0,0.03 0.02,0.04 2.29,1.72 4.37,4.04 0.42,0.46 0.56,1.05 0.12,0.5 0.5,0.84 0.47,0.43 -0.15,0.53 -0.05,0.01 -0.1,0 -0.32,-0.11 -0.1,0.15 1.83,2.11 3.62,4.25 0.24,0.28 0.6,0.35 0.31,0.06 0.56,0.37 3.37,4.08 6.89,8.03 1.13,1.27 1.98,2.61 c 0.85,1.32 2.05,2.04 3.07,3.2 q 7.73,8.85 15.11,16.92 4.88,5.33 9.71,10.46 0.35,0.37 0.66,0.82 0.47,0.66 1.11,1.17 2.57,2.03 5.15,4.86 a 1.45,1.46 76.5 0 0 0.71,0.43 q 0.75,0.18 1.12,0.79 a 0.21,0.21 0 0 1 -0.21,0.32 q -0.22,-0.02 -0.19,0.2 a 0.09,0.09 0 0 0 0.12,0.07 q 1.16,-0.36 1.59,0.77 0.19,0.49 0.69,0.66 2.07,0.67 0.85,1.2 z"
       id="path144"
       style="stroke-width:1.04229" />
    <path
       fill="#ea1a57"
       d="m -450.755,286.35349 q 0.7,1.21 0.59,2.08 -0.08,0.55 0.2,1.03 0.78,1.32 0.4,2.66 -0.2,0.7 0.44,1.05 0.65,0.35 1.39,0.22 0.58,-0.11 0.95,0.35 2.69,3.33 5.11,6.63 c 0.54,0.73 0.43,1.43 0.92,2.1 q 3.12,4.3 6.6,7.53 2.75,2.55 5.33,6.01 2.57,3.45 5.07,7.01 0.37,0.53 0.79,0.04 l 5.1,-5.93 q -8.68,17.49 -22.68,31.18 -0.65,-0.24 -1.67,-1.45 -6.72,-7.98 -13.19,-16.17 c -2.58,-3.27 -5.57,-6.09 -8.06,-9.41 -0.47,-0.62 -1.22,-1.07 -1.91,-1.41 q -0.72,-0.36 0.04,-0.6 0.32,-0.11 0.64,0 0.53,0.17 0.28,-0.32 -0.09,-0.16 0.02,-0.36 a 0.35,0.35 0 0 0 -0.29,-0.51 q -1.58,-0.07 -2,-1.21 -0.08,-0.24 -0.26,-0.43 -1.03,-1.12 0.22,-1.36 0.53,-0.11 0.78,-0.58 0.43,-0.79 0.6,-1.6 0.06,-0.33 -0.05,-0.01 -0.68,1.94 -2.15,1.67 11.2,-12.36 16.79,-28.21 z"
       id="path145"
       style="stroke-width:1.04229" />
    <path
       fill="#f89520"
       d="m -758.865,307.84349 q 0.64,-0.02 0.53,1.21 -0.06,0.73 0.58,0.45 0.14,-0.06 0.29,0.07 0.44,0.38 0.32,0.94 -0.11,0.52 0.47,0.69 0.48,0.14 0.65,0.61 0.36,0.97 1.32,1.37 0.45,0.19 0.62,0.65 1.35,3.59 4.07,6.15 0.67,0.64 0.94,1.52 0.14,0.43 0.49,0.71 1.59,1.24 2.67,2.71 1.09,1.48 2.43,2.93 1.58,1.72 3.04,3.73 1.44,1.98 3.24,3.66 3.63,3.37 7.21,7.44 2.83,3.23 5.68,6.16 c 0.91,0.94 1.22,2.06 2.11,3.03 q 3.11,3.4 3.98,4.52 1.38,1.78 1.86,4.21 0.17,0.87 0.54,0.07 0.06,-0.13 0.22,-0.18 0.32,-0.11 0.27,0.22 -0.3,2.23 0.45,4.35 0.07,0.18 -0.09,0.29 -0.19,0.13 -0.25,0.02 -0.13,-0.22 -0.16,0.03 -0.11,0.69 0.3,1.15 0.32,0.35 0.4,0.82 l 1.02,6.22 q 1.81,18.07 8.26,31.71 12.61,26.66 39.73,38.16 2.16,0.92 4.4,1.96 1.01,3 4.34,4.09 0.47,0.15 0.8,0.53 2.95,3.39 6.69,3.72 2.13,0.18 4.35,0.98 a 1.05,1.02 84.8 0 1 0.55,0.47 q 0.59,1.11 1.48,2.02 0.97,0.99 1.85,2.15 2.28,3.01 5.02,5.53 c 1.27,1.18 1.7,2.54 2.96,3.7 q 1.3,1.2 2.31,2.65 1.86,2.69 4.34,5.18 a 0.68,0.69 27.3 0 1 0.19,0.6 q -0.09,0.65 0.55,0.72 a 0.71,0.71 0 0 1 0.51,0.32 q 2.81,4.17 6.34,7.31 0.27,0.24 0.38,0.58 0.06,0.2 -0.07,0.33 -0.48,0.51 0.23,0.51 0.66,0 1.17,0.74 0.26,0.39 0.71,0.51 0.85,0.24 1.55,0.85 1.69,1.48 3.44,3.09 a 3.55,3.52 68.3 0 0 2.14,0.93 q 1.34,0.11 2.57,0.71 1.17,0.57 -0.13,0.72 -4.9,0.58 -10.17,0.36 -2.08,-0.09 -4.18,-0.25 a 1.85,1.88 35.3 0 0 -0.94,0.17 q -0.94,0.44 -1.83,0.13 -0.83,-0.28 -1.78,-0.3 -2.73,-0.05 -5.31,0.53 c -39.81,-2.49 -79.38,-19.88 -102.29,-53.9 q -14.84,-22.05 -20.42,-49.59 -3.16,-15.54 -4.28,-34.62 -0.74,-12.61 -0.66,-49.05 z"
       id="path146"
       style="stroke-width:1.04229" />
    <path
       fill="#ea203b"
       d="m -440.545,348.31349 q -15.79,15.97 -36.72,24.73 -0.93,-0.62 1.73,-1.58 a 2.23,2.28 8.1 0 0 1.07,-0.82 q 1.49,-2.11 -0.54,-2.81 -0.83,-0.28 -1.42,-0.92 -10.46,-11.34 -19.41,-22.01 -1.24,-1.48 -2.17,-3.15 -2.09,-3.77 -7.38,-2.88 -0.91,0.16 -1.83,0.45 -2.82,0.91 -2.11,-0.6 24.79,-5.77 41.78,-24.16 1.47,0.27 2.15,-1.67 0.11,-0.32 0.05,0.01 -0.17,0.81 -0.6,1.6 -0.25,0.47 -0.78,0.58 -1.25,0.24 -0.22,1.36 0.18,0.19 0.26,0.43 0.42,1.14 2,1.21 a 0.35,0.35 0 0 1 0.29,0.51 q -0.11,0.2 -0.02,0.36 0.25,0.49 -0.28,0.32 -0.32,-0.11 -0.64,0 -0.76,0.24 -0.04,0.6 c 0.69,0.34 1.44,0.79 1.91,1.41 2.49,3.32 5.48,6.14 8.06,9.41 q 6.47,8.19 13.19,16.17 1.02,1.21 1.67,1.45 z"
       id="path147"
       style="stroke-width:1.04229" />
    <path
       fill="#e40a89"
       d="m -292.065,362.33349 q -1.3,28.76 -11.86,55.38 -1.77,4.46 -3.99,8.78 -0.36,-0.58 0.04,-1.42 a 0.07,0.07 0 0 0 -0.1,-0.09 q -0.27,0.18 -0.09,0.52 a 0.52,0.51 60.3 0 1 -0.18,0.68 q -0.23,0.14 -0.37,0.36 -0.34,0.51 -0.78,0.1 -0.59,-0.56 -0.1,-1.11 0.32,-0.37 -0.02,-0.72 -0.93,-0.95 -2.13,-1.65 -1.07,-0.63 -1.84,-1.57 -2.17,-2.69 -5.07,-5.04 -0.62,-0.49 -0.99,-1.18 -0.3,-0.52 -0.76,-0.14 -0.15,0.13 -0.32,0.01 -0.4,-0.31 -0.47,-0.81 -0.11,-0.99 -1.15,-1.15 a 1.49,1.48 72.5 0 1 -0.82,-0.43 q -1.93,-2.01 -4.17,-3.54 -1.71,-1.18 -3.12,-3.05 -1.68,-2.23 -3.8,-4.14 -1.47,-1.33 -3.51,-1 -0.54,0.08 -0.56,-0.46 -0.24,-5.68 0.95,-10.54 0.13,-0.51 -0.08,-0.99 -0.27,-0.6 0.06,-1.13 0.26,-0.4 0.23,-0.88 l -0.34,-4.33 q 2.32,-10.88 2.82,-21.4 0.67,-14.01 1.35,-37.02 0.31,-0.21 0.45,-1.02 0.14,-0.84 0.59,-0.12 0.53,0.85 0.91,1.59 0.06,0.11 -0.05,0.19 -0.03,0.02 -0.01,0.01 -0.07,-0.34 -0.01,-0.43 a 0.77,0.77 0 0 1 1.13,-0.19 q 6.18,5.03 12.32,10.12 0.21,0.18 0.12,0.44 -0.04,0.12 -0.23,0.15 -0.06,0.01 -0.12,0 -0.13,-0.03 -0.26,-0.09 -0.68,-0.31 -0.13,0.21 4.12,3.86 8.04,7.71 0.35,0.35 0.8,0.15 1.14,-0.52 1.9,0.27 1.93,1.96 4.09,3.66 4.47,3.49 8.71,6.81 a 2.05,2.08 9 0 1 0.67,0.94 l 0.61,1.68 q 0.18,0.48 0.68,0.53 0.28,0.03 0.37,-0.14 0.32,-0.53 0.46,0.07 0.34,1.51 -0.15,3.01 -0.15,0.46 0.01,0.9 0.27,0.77 0.27,1.51 z"
       id="path148"
       style="stroke-width:1.04229" />
    <path
       fill="#ee5031"
       d="m -551.235,335.58349 q 20.69,7.22 41.91,3.14 -0.71,1.51 2.11,0.6 0.92,-0.29 1.83,-0.45 5.29,-0.89 7.38,2.88 0.93,1.67 2.17,3.15 8.95,10.67 19.41,22.01 0.59,0.64 1.42,0.92 2.03,0.7 0.54,2.81 a 2.23,2.28 8.1 0 1 -1.07,0.82 q -2.66,0.96 -1.73,1.58 -9.39,4.1 -19.47,6.41 -0.2,-0.13 -0.41,-0.17 -0.27,-0.05 -0.24,-0.31 0.02,-0.16 -0.01,-0.32 a 0.17,0.17 0 0 1 0.19,-0.2 l 1.99,0.24 q 0.67,0.09 0.47,-0.56 -0.09,-0.29 0.21,-0.16 0.78,0.33 0.91,-0.5 c 0.13,-0.8 0.07,-1.65 -0.63,-2.18 q -3,-2.29 -5.95,-5.14 -0.22,-0.21 -0.47,-0.05 -0.1,0.07 -0.15,0.23 a 0.01,0.01 0 0 1 -0.02,0 q -3.58,-5.93 -7.74,-10.08 -3.21,-3.2 -5.03,-5.38 -0.36,-0.42 -0.87,-0.62 -0.51,-0.21 -0.57,-0.71 -0.05,-0.45 -0.38,-0.76 -3.28,-3.15 -5.41,-7.4 a 1.55,1.55 0 0 0 -0.67,-0.7 q -1.63,-0.87 -1.94,-2.54 -0.09,-0.49 -0.59,-0.55 -4.42,-0.53 -8.94,-0.86 -4.84,-0.36 -9.3,-1.75 c -0.84,-0.26 -1.8,-0.02 -2.48,-0.41 q -0.47,-0.26 -0.97,-0.41 -2.26,-0.66 -4.48,-1.41 -2.09,-0.7 -1.02,-1.17 z"
       id="path149"
       style="stroke-width:1.04229" />
    <path
       fill="#ea1a57"
       d="m -337.405,382.79349 0.34,4.33 q 0.03,0.48 -0.23,0.88 -0.33,0.53 -0.06,1.13 0.21,0.48 0.08,0.99 -1.19,4.86 -0.95,10.54 0.02,0.54 0.56,0.46 2.04,-0.33 3.51,1 2.12,1.91 3.8,4.14 1.41,1.87 3.12,3.05 2.24,1.53 4.17,3.54 a 1.49,1.48 72.5 0 0 0.82,0.43 q 1.04,0.16 1.15,1.15 0.07,0.5 0.47,0.81 0.17,0.12 0.32,-0.01 0.46,-0.38 0.76,0.14 0.37,0.69 0.99,1.18 2.9,2.35 5.07,5.04 0.77,0.94 1.84,1.57 1.2,0.7 2.13,1.65 0.34,0.35 0.02,0.72 -0.49,0.55 0.1,1.11 0.44,0.41 0.78,-0.1 0.14,-0.22 0.37,-0.36 a 0.52,0.51 60.3 0 0 0.18,-0.68 q -0.18,-0.34 0.09,-0.52 a 0.07,0.07 0 0 1 0.1,0.09 q -0.4,0.84 -0.04,1.42 c -12.25,25.9 -33.55,45.58 -59.82,56.53 q -3.55,0.03 -6.79,1.79 -0.4,0.22 -0.86,0.23 -1.52,0.03 -3.01,0.62 -3.98,1.58 -7.33,-0.49 c -1.37,-0.84 -2.87,-1.49 -4.4,-2 q -1.68,-0.57 -3.22,-1.86 -1.79,-1.52 -3.68,-3.2 -0.38,-0.33 -0.46,-0.83 -0.13,-0.83 0.05,-1.68 0.12,-0.55 -0.22,-1.01 -1.18,-1.55 -2.15,-3.31 -0.97,-1.76 -2.81,-3.34 -3.56,-3.06 -5.61,-5.74 -2.66,-3.46 -5.4,-7.25 -0.32,-0.43 -0.06,-0.89 0.29,-0.54 -0.19,-0.86 -0.86,-0.56 -1.81,-0.58 -2.02,-0.04 -4.22,0.01 -0.37,0.01 -0.5,-0.33 -0.08,-0.22 -0.32,-0.22 -2.34,0.02 -4.73,-0.04 15.8,-1.12 26.66,-3.47 c 33.82,-7.29 54.67,-32.64 61.39,-65.78 z"
       id="path150"
       style="stroke-width:1.04229" />
    <path
       fill="#f2692e"
       d="m -661.275,445.42349 c 17.65,5.74 34.81,7.17 53.8,8.08 q 15.2,0.73 45.29,0.78 -7.25,0.04 -14.51,0.03 -0.55,0 -1.99,0.4 -1.01,0.28 -2.13,0 -0.18,-0.04 -0.21,0.14 l -0.04,0.25 a 0.03,0.03 0 0 0 0.03,0.03 q 6.36,0.42 11.75,0.42 1.05,0 1.99,0.61 0.14,0.09 -0.01,0.23 -0.12,0.1 0,0.21 0.19,0.17 0.44,0.19 a 0.52,0.52 0 0 1 0.45,0.41 c 0.55,2.66 3.24,2.36 4.68,4.3 q 2.45,3.29 3.79,5.01 3.8,4.9 9.28,9.97 0.94,0.87 1.6,1.94 0.81,1.29 2.27,1.79 a 0.89,0.87 86.4 0 1 0.51,0.46 l 1,2.1 q 0.22,0.46 0.66,0.7 1.4,0.75 2.49,2.25 0.27,0.37 0.14,0.82 -0.16,0.59 0.15,1.11 0.3,0.52 0.87,0.69 2.86,0.87 3.88,3.58 0.17,0.47 0.68,0.37 0.41,-0.08 0.76,0.16 0.75,0.51 0.78,1.35 0.01,0.37 0.28,0.11 0.54,-0.53 1.33,-0.1 0.63,0.34 -0.07,0.52 -1.41,0.35 -2.76,0.18 a 0.03041381,0.03041381 0 0 1 -0.01,-0.06 q 0.8,-0.23 0.77,0.71 0,0.22 -0.01,0.45 -0.02,0.49 0.47,0.5 l 15.2,0.4 q -51.47,0.17 -102.91,-0.7 -5.36,-0.09 -10.63,-0.81 2.58,-0.58 5.31,-0.53 0.95,0.02 1.78,0.3 0.89,0.31 1.83,-0.13 a 1.85,1.88 35.3 0 1 0.94,-0.17 q 2.1,0.16 4.18,0.25 5.27,0.22 10.17,-0.36 1.3,-0.15 0.13,-0.72 -1.23,-0.6 -2.57,-0.71 a 3.55,3.52 68.3 0 1 -2.14,-0.93 q -1.75,-1.61 -3.44,-3.09 -0.7,-0.61 -1.55,-0.85 -0.45,-0.12 -0.71,-0.51 -0.51,-0.74 -1.17,-0.74 -0.71,0 -0.23,-0.51 0.13,-0.13 0.07,-0.33 -0.11,-0.34 -0.38,-0.58 -3.53,-3.14 -6.34,-7.31 a 0.71,0.71 0 0 0 -0.51,-0.32 q -0.64,-0.07 -0.55,-0.72 a 0.68,0.69 27.3 0 0 -0.19,-0.6 q -2.48,-2.49 -4.34,-5.18 -1.01,-1.45 -2.31,-2.65 c -1.26,-1.16 -1.69,-2.52 -2.96,-3.7 q -2.74,-2.52 -5.02,-5.53 -0.88,-1.16 -1.85,-2.15 -0.89,-0.91 -1.48,-2.02 a 1.05,1.02 84.8 0 0 -0.55,-0.47 q -2.22,-0.8 -4.35,-0.98 -3.74,-0.33 -6.69,-3.72 -0.33,-0.38 -0.8,-0.53 -3.33,-1.09 -4.34,-4.09 z"
       id="path151"
       style="stroke-width:1.04229" />
    <path
       fill="#ea203b"
       d="m -425.455,452.04349 q 2.39,0.06 4.73,0.04 0.24,0 0.32,0.22 0.13,0.34 0.5,0.33 2.2,-0.05 4.22,-0.01 0.95,0.02 1.81,0.58 0.48,0.32 0.19,0.86 -0.26,0.46 0.06,0.89 2.74,3.79 5.4,7.25 2.05,2.68 5.61,5.74 1.84,1.58 2.81,3.34 0.97,1.76 2.15,3.31 0.34,0.46 0.22,1.01 -0.18,0.85 -0.05,1.68 0.08,0.5 0.46,0.83 1.89,1.68 3.68,3.2 1.54,1.29 3.22,1.86 c 1.53,0.51 3.03,1.16 4.4,2 q 3.35,2.07 7.33,0.49 1.49,-0.59 3.01,-0.62 0.46,-0.01 0.86,-0.23 3.24,-1.76 6.79,-1.79 -15.07,5.96 -26.74,8.32 -29.7,6 -63.48,5.25 -3.86,-0.36 -7.77,-0.3 -1.1,0.02 -3.15,-0.78 -0.74,-0.29 0.05,-0.24 1.11,0.08 1.31,-0.74 0.06,-0.21 0.28,-0.21 0.75,0 0.23,-0.53 -0.79,-0.82 -1.73,-1.5 c -1.79,-1.3 -2.25,-3.4 -4.01,-4.77 q -1.62,-1.26 -2.99,-2.82 -0.76,-0.87 -1.86,-1.06 -0.53,-0.09 -0.82,-0.54 -1.2,-1.83 -2.74,-3.46 -1.37,-1.44 -2.57,-3.07 -2.51,-3.42 -5.26,-6.31 -2.44,-2.56 -3.89,-5.55 -0.67,-1.39 -1.86,-2.45 -1.76,-1.58 -2.48,-3.39 -0.16,-0.38 -0.52,-0.19 l -0.26,0.13 q -0.44,0.23 -0.81,-0.12 -0.95,-0.9 -1.44,-1.92 -0.25,-0.51 -0.81,-0.52 -3.38,-0.09 -6.92,-0.34 -0.7,-0.05 -0.73,-0.41 -8.96,-0.1 -18.2,-0.43 -0.06,0 -0.06,-0.06 -0.01,-0.05 0.01,-0.1 0.02,-0.08 0.11,-0.08 1.8,0.08 3.2,-0.55 21.53,-0.18 43.17,-0.18 18.16,0 55.02,-2.06 z"
       id="path152"
       style="stroke-width:1.04229" />
    <path
       fill="#ee5031"
       d="m -562.185,454.28349 h 38.54 q -1.4,0.63 -3.2,0.55 -0.09,0 -0.11,0.08 -0.02,0.05 -0.01,0.1 0,0.06 0.06,0.06 9.24,0.33 18.2,0.43 0.03,0.36 0.73,0.41 3.54,0.25 6.92,0.34 0.56,0.01 0.81,0.52 0.49,1.02 1.44,1.92 0.37,0.35 0.81,0.12 l 0.26,-0.13 q 0.36,-0.19 0.52,0.19 0.72,1.81 2.48,3.39 1.19,1.06 1.86,2.45 1.45,2.99 3.89,5.55 2.75,2.89 5.26,6.31 1.2,1.63 2.57,3.07 1.54,1.63 2.74,3.46 0.29,0.45 0.82,0.54 1.1,0.19 1.86,1.06 1.37,1.56 2.99,2.82 c 1.76,1.37 2.22,3.47 4.01,4.77 q 0.94,0.68 1.73,1.5 0.52,0.53 -0.23,0.53 -0.22,0 -0.28,0.21 -0.2,0.82 -1.31,0.74 -0.79,-0.05 -0.05,0.24 2.05,0.8 3.15,0.78 3.91,-0.06 7.77,0.3 l -59.72,-0.08 -15.2,-0.4 q -0.49,-0.01 -0.47,-0.5 0.01,-0.23 0.01,-0.45 0.03,-0.94 -0.77,-0.71 a 0.03041381,0.03041381 0 0 0 0.01,0.06 q 1.35,0.17 2.76,-0.18 0.7,-0.18 0.07,-0.52 -0.79,-0.43 -1.33,0.1 -0.27,0.26 -0.28,-0.11 -0.03,-0.84 -0.78,-1.35 -0.35,-0.24 -0.76,-0.16 -0.51,0.1 -0.68,-0.37 -1.02,-2.71 -3.88,-3.58 -0.57,-0.17 -0.87,-0.69 -0.31,-0.52 -0.15,-1.11 0.13,-0.45 -0.14,-0.82 -1.09,-1.5 -2.49,-2.25 -0.44,-0.24 -0.66,-0.7 l -1,-2.1 a 0.89,0.87 86.4 0 0 -0.51,-0.46 q -1.46,-0.5 -2.27,-1.79 -0.66,-1.07 -1.6,-1.94 -5.48,-5.07 -9.28,-9.97 -1.34,-1.72 -3.79,-5.01 c -1.44,-1.94 -4.13,-1.64 -4.68,-4.3 a 0.52,0.52 0 0 0 -0.45,-0.41 q -0.25,-0.02 -0.44,-0.19 -0.12,-0.11 0,-0.21 0.15,-0.14 0.01,-0.23 -0.94,-0.61 -1.99,-0.61 -5.39,0 -11.75,-0.42 a 0.03,0.03 0 0 1 -0.03,-0.03 l 0.04,-0.25 q 0.03,-0.18 0.21,-0.14 1.12,0.28 2.13,0 1.44,-0.4 1.99,-0.4 7.26,0.01 14.51,-0.03 z"
       id="path153"
       style="stroke-width:1.04229" />
  </g>
</svg>
