<?xml version="1.0" encoding="UTF-8" standalone="no"?>
<!-- Created with Inkscape (http://www.inkscape.org/) -->

<svg
   width="905px"
   height="262px"
   viewBox="0 0 905 262"
   id="SVGRoot"
   version="1.1"
   enable-background="new"
   inkscape:version="1.3 (0e150ed6c4, 2023-07-21)"
   sodipodi:docname="instagram-white.svg"
   xmlns:inkscape="http://www.inkscape.org/namespaces/inkscape"
   xmlns:sodipodi="http://sodipodi.sourceforge.net/DTD/sodipodi-0.dtd"
   xmlns="http://www.w3.org/2000/svg"
   xmlns:svg="http://www.w3.org/2000/svg">
  <defs
     id="defs4787">
    <clipPath
       clipPathUnits="userSpaceOnUse"
       id="patternClipPath">
      <rect
         y="0"
         x="0"
         height="262"
         width="905"
         id="clipPathRect"
         style="color:#000000;display:inline;overflow:visible;visibility:visible;opacity:1;fill:#ffff00;fill-opacity:1;fill-rule:nonzero;stroke:none;stroke-width:20;stroke-linecap:square;stroke-linejoin:miter;stroke-miterlimit:4;stroke-dasharray:none;stroke-dashoffset:1.09889996;stroke-opacity:1;marker:none;enable-background:accumulate" />
    </clipPath>
    <marker
       inkscape:stockid="Arrow2Mend"
       orient="auto"
       refY="0.0"
       refX="0.0"
       id="Arrow2Mend"
       style="overflow:visible;"
       inkscape:isstock="true">
      <path
         id="path19572"
         style="fill-rule:evenodd;stroke-width:0.625;stroke-linejoin:round;stroke:#000000;stroke-opacity:1;fill:#000000;fill-opacity:1"
         d="M 8.7185878,4.0337352 L -2.2072895,0.016013256 L 8.7185884,-4.0017078 C 6.9730900,-1.6296469 6.9831476,1.6157441 8.7185878,4.0337352 z "
         transform="scale(0.6) rotate(180) translate(0,0)" />
    </marker>
  </defs>
  <sodipodi:namedview
     id="base"
     pagecolor="#ffffff"
     bordercolor="#666666"
     borderopacity="1.0"
     inkscape:pageopacity="0"
     inkscape:pageshadow="2"
     inkscape:zoom="0.62506677"
     inkscape:cx="237.57462"
     inkscape:cy="323.96539"
     inkscape:document-units="px"
     inkscape:current-layer="SVGRoot"
     showgrid="false"
     inkscape:pagecheckerboard="true"
     inkscape:window-width="1920"
     inkscape:window-height="1164"
     inkscape:window-x="-11"
     inkscape:window-y="-11"
     inkscape:window-maximized="1"
     inkscape:blackoutopacity="0.0"
     showborder="true"
     inkscape:showpageshadow="true"
     borderlayer="false"
     inkscape:deskcolor="#d1d1d1" />
  <inkscape:_templateinfo
     id="_templateinfo10">
    <inkscape:_name
       id="_name12">Seamless Pattern</inkscape:_name>
    <inkscape:_shortdesc
       id="_shortdesc14">Seamless Pattern</inkscape:_shortdesc>
    <inkscape:_keywords
       id="_keywords16">Seamless Pattern</inkscape:_keywords>
  </inkscape:_templateinfo>
  <g
     id="g194"
     transform="matrix(0.97083784,0,0,0.96493072,-321.52959,-674.01008)"
     style="stroke-width:1.03318617;fill:#ffffff;fill-opacity:1;stroke-dasharray:none">
    <path
       fill="#050608"
       d="m 390.42,719.31 q -1.17,-0.58 -2.17,0.35 -6.84,6.3 -11.5,14.72 -12.34,22.27 -10.35,47.38 0.88,11.11 7.63,20.75 0.82,1.16 1.11,2.64 c 0.4,2.03 -1.34,3.99 -3.35,3.74 q -6.55,-0.83 -12.55,-5.69 c -14.45,-11.73 -17.38,-28.24 -12.12,-45.56 q 6.63,-21.83 21.94,-37.74 9.64,-10.03 20.87,-15.42 c 1.81,-0.88 5.13,-1.58 7.12,-1.38 q 4.56,0.47 6.18,0.86 c 3.32,0.82 12.21,4.79 12.24,8.78 q 0.61,83.65 -0.25,140.51 -0.03,2.29 -1.23,11 c -1.95,14.24 -8.54,28.59 -21.58,35.89 -2.38,1.33 -9.38,4.11 -8.35,-1.55 0.91,-4.99 3.1,-9.95 3.96,-14.86 q 2.02,-11.51 2.13,-21.54 0.74,-70.86 0.67,-142.23 a 0.73,0.72 -76.8 0 0 -0.4,-0.65 z"
       id="path154"
       style="stroke-width:1.03318617;fill:#ffffff;fill-opacity:1;stroke-dasharray:none" />
    <path
       fill="#050608"
       d="m 1124.11,811.68 c 0.16,-1.27 0.33,-2.49 0.73,-3.74 q 3.76,-11.93 7.92,-24.13 3.14,-9.25 7.06,-16.18 c 1.35,-2.39 3.69,-4.01 6.55,-4.06 7.21,-0.13 17.22,3.99 19.65,10.98 q 1.39,4 1.27,12.44 -0.22,16.82 1.24,34.48 0.31,3.73 0.92,7.81 a 0.37,0.36 71.1 0 0 0.54,0.27 q 0.38,-0.2 0.41,-0.63 0.5,-6 1.71,-11.53 4.63,-21.19 12.84,-42.37 c 1.44,-3.7 2.79,-8.18 6.39,-10.27 q 2.92,-1.71 6.3,-0.95 5.96,1.35 12.15,4.45 c 3.86,1.94 7.97,5.06 7.99,9.87 0.02,6.17 -0.4,12.29 -0.5,18.45 q -0.48,28.97 0.14,42.85 0.41,9.19 3.38,17.83 1.55,4.53 5.51,7.21 2.02,1.37 4.57,0.47 2.72,-0.97 4.22,-3.18 c 3.69,-5.43 5.03,-13.54 6.68,-20.15 0.42,-1.72 1.7,-4 3.66,-4.16 4.51,-0.35 4.67,5.42 4.31,8.55 -1.14,9.87 -3.44,20.23 -9.8,27.81 -7.38,8.8 -20.65,8.66 -29.21,1.74 q -7.45,-6.03 -10.7,-16.17 -3.57,-11.16 -4.11,-25.27 -0.7,-18.3 -0.18,-40.88 0.09,-4.02 -1.53,-0.35 -15.52,35.09 -16.82,73.98 -0.07,1.84 -1.11,2.79 c -2.36,2.14 -5.74,1.91 -8.74,1.92 -9.77,0.07 -14,-8.32 -15.45,-16.75 q -4.16,-24.24 -4.55,-48.48 c -0.07,-4.3 -0.58,-8.59 -0.82,-12.86 q -0.1,-1.87 -1.27,-0.41 -2.33,2.92 -3.92,6.39 -6.95,15.2 -10.65,32.72 -1.8,8.54 -2.45,19.14 -0.73,11.95 -0.72,22.71 0.01,5.68 -5.46,6.17 c -6.41,0.58 -13.11,0.78 -18.68,-2.49 -3.51,-2.06 -2.86,-9.21 -3.01,-12.68 q -0.14,-3.62 -1.56,-0.29 c -2.78,6.56 -8.37,14 -15.82,15.27 -3.93,0.67 -8.34,0.82 -12.11,-0.59 q -14.02,-5.24 -16.9,-20.57 -0.45,-2.41 -1.51,-0.2 -5.01,10.43 -15,16.86 -9.66,6.21 -21.45,4.73 c -8.56,-1.08 -15.69,-7.28 -20.08,-14.54 -0.45,-0.75 -0.46,-1.57 -0.89,-2.32 a 0.51,0.51 0 0 0 -0.89,0.03 c -3.17,6.28 -6.95,11.15 -13.22,14.72 q -4.82,2.75 -10.96,2.27 c -12.04,-0.94 -21.55,-10.58 -25.36,-21.62 q -4.73,-13.68 -3.85,-31.15 0.89,-17.68 5.13,-34.8 a 1.33,1.33 0 0 0 -1.32,-1.65 l -16.26,0.33 a 1.11,1.09 -81.1 0 0 -1.01,0.75 q -14.57,42.57 -42.94,76.41 a 1.84,1.82 -25.9 0 0 -0.42,1.19 q 0.36,17.28 0.28,35.04 -0.09,17.13 -4.85,32.16 -3.78,11.94 -11.55,18.9 -16.69,14.95 -37.69,6.42 -11.82,-4.8 -15.32,-16.96 c -3.68,-12.79 2.55,-25.09 10.49,-34.65 q 7.14,-8.59 14.54,-15.52 11.05,-10.33 22.28,-20.94 0.56,-0.53 0.52,-1.29 l -0.39,-8.8 q -0.1,-2.1 -1.25,-0.34 -5.21,7.98 -13.82,12.87 -7.66,4.34 -17.55,3.68 c -10.69,-0.71 -19.15,-8.28 -23.5,-17.82 a 0.64,0.63 -45.2 0 0 -1.16,0.01 c -3.46,7.84 -9.14,15.34 -17.81,17.21 q -10.41,2.26 -18.52,-3.48 -9.02,-6.38 -10.45,-17.33 -0.29,-2.25 -1.35,-0.25 c -5.24,9.88 -14.02,18.53 -25,20.99 -8.78,1.96 -18.14,0.4 -24.82,-5.83 -6.87,-6.42 -10.2,-13.85 -12.55,-22.73 q -0.4,-1.48 -0.89,-0.02 c -3.45,10.34 -10.56,22.02 -20.39,27.48 -2.24,1.24 -5.26,1.96 -7.85,1.92 q -14.22,-0.26 -21.5,-13.42 -6.43,-11.6 -7.67,-27.89 -0.18,-2.32 -1.13,-0.2 -1.99,4.46 -4.1,8.67 c -7.74,15.47 -20.91,29.28 -38.67,32.35 q -7.23,1.24 -11.94,0.92 -6.97,-0.48 -13.67,-1.98 -5.48,-1.23 -10.61,-4.18 c -2.92,-1.68 -5.39,-4.18 -4.57,-7.77 q 1.57,-6.96 7.54,-12.31 c 2.19,-1.97 5.64,-1.38 7.73,0.41 q 3.8,3.24 7.65,5.44 12.61,7.22 18.36,-5.15 1.11,-2.38 1.42,-6.12 c 0.61,-7.42 -3.77,-15.69 -8.79,-20.95 q -7.58,-7.93 -15.62,-15.07 a 0.45,0.45 0 0 0 -0.69,0.11 q -10,17.19 -21.15,36.27 c -6.38,10.92 -14.77,22.85 -25.94,28.87 q -3.47,1.87 -8.23,1.95 c -11.6,0.18 -14.69,-11.84 -15.93,-20.96 q -1.79,-13.18 -1.14,-28.57 0.49,-11.67 1.02,-22.74 0.67,-13.87 0.9,-24.24 a 0.79,0.78 -19.7 0 0 -1.3,-0.61 q -2.27,1.92 -4.1,4.22 -5.57,6.98 -9.81,14.95 -9.44,17.73 -15.15,38.16 -1.95,6.97 -3.69,13.76 -2.87,11.18 -3.93,21.89 -0.35,3.51 -3.88,3.87 -5.54,0.55 -10.46,-0.14 c -9.51,-1.35 -9.09,-16.02 -9.07,-22.84 q 0.16,-44.54 0.29,-89.93 c 0.01,-2.45 2.21,-3.88 4.55,-3.78 q 7.38,0.32 15.18,4.34 c 1.35,0.7 2.29,1.66 2.29,3.28 q -0.08,25.97 -0.35,50.58 -0.04,4.29 1.32,0.22 3.51,-10.47 7.48,-21.16 c 4.91,-13.22 15.39,-35.03 30.97,-37.14 q 4.27,-0.58 9.27,1.88 6.62,3.26 10.36,6.49 c 2.58,2.23 3.73,5.18 3.71,8.75 q -0.04,9.96 -0.55,19.41 -1.01,18.85 -0.74,40.84 c 0.05,4.6 0.14,12.64 3.03,15.87 a 2.32,2.32 0 0 0 2.73,0.55 c 5.06,-2.41 9,-8.78 11.88,-13.61 q 11.37,-19.03 21.76,-39.39 0.34,-0.67 -0.17,-1.22 -6.13,-6.54 -6.06,-14.46 0.09,-9.78 6.03,-17.29 9.26,-11.69 23.19,-9.56 6.05,0.93 7.57,6 c 2.73,9.06 -6.3,23.04 -11.8,29.59 a 0.4,0.39 -52.7 0 0 0.07,0.57 q 12.74,9.35 24.49,19.08 c 9.04,7.48 15.22,19.21 12.68,31.12 q -0.57,2.68 1.35,0.73 11.75,-11.91 16.46,-28.41 1.31,-4.61 1.29,-9.92 -0.08,-25.83 0.11,-51.86 a 0.38,0.38 0 0 0 -0.36,-0.38 l -25.84,-0.81 a 1.87,1.86 -4 0 1 -1.78,-1.54 q -1.51,-8.47 3.16,-15.95 a 1.57,1.56 -73.6 0 1 1.37,-0.75 l 23.71,0.5 a 1.03,1.02 -88.9 0 0 1.04,-1.01 q 0.21,-15.85 1.39,-30.99 0.41,-5.17 6.16,-4.62 9.97,0.95 17.8,5.13 2.01,1.07 1.9,3.38 -0.72,14.64 -1.11,28.73 a 0.72,0.72 0 0 0 0.69,0.74 q 14.23,0.52 29.74,1.61 1.77,0.13 3.23,0.9 a 2.56,2.55 12.5 0 1 1.37,2.14 q 0.29,6.19 -3.23,11.81 -0.26,0.41 -0.75,0.48 -2.83,0.42 -5.6,0.44 -13.21,0.11 -25.54,0.6 -0.6,0.03 -0.6,0.63 -0.08,8.01 -0.51,16.87 c -0.7,14.52 -0.62,26.94 -1.29,40.6 q -0.42,8.63 0,17.27 0.14,2.97 0.34,5.89 0.53,7.54 2.73,14.72 1.38,4.48 4.6,6.81 c 4.14,2.99 10.62,-3.51 12.91,-6.44 5.94,-7.64 10.92,-18.66 10.92,-28.88 q 0.01,-12.82 3.54,-27.87 c 2.49,-10.58 7.36,-20.29 14.33,-27.93 10.31,-11.3 26.71,-12.69 38.16,-2.48 q 2.6,2.32 4.23,5.11 1.26,2.17 1.17,-0.34 -0.05,-1.23 -0.02,-2.5 c 0.19,-8.52 14.09,-4.47 18.59,-2.72 2.66,1.04 5.05,2.59 5.05,5.8 q -0.03,11.67 -0.68,24.66 -0.74,14.68 -0.24,43.49 c 0.05,2.52 0.77,4.66 0.87,7.1 0.19,4.85 1.98,12.25 5.58,15.27 8.92,7.48 15.82,-7.07 17.58,-13.64 q 0.83,-3.07 0.29,-7.25 -2.39,-18.71 0.97,-37.16 c 3.5,-19.25 15.44,-48.49 40.71,-44.29 7.78,1.29 13.75,5.74 17.99,11.95 q 1.2,1.75 0.99,-0.37 c -0.27,-2.66 -0.51,-4.97 1.82,-6.74 q 1.79,-1.35 4.23,-1.31 7.81,0.15 14.76,3.61 c 1.65,0.82 2.58,2.44 2.53,4.26 q -1.11,40.72 -0.9,76.72 0.01,1.29 0.75,0.23 19.08,-27.6 26.68,-58.1 0.12,-0.46 -0.27,-0.75 -6.01,-4.36 -6.71,-10.92 -0.98,-9.27 4.34,-16.04 4.96,-6.32 13.54,-5.68 c 9.99,0.75 11.48,9.26 9.22,17.73 q -0.19,0.72 0.54,0.61 11.01,-1.68 22.17,-4.14 c 4.19,-0.93 10.12,-0.8 13.37,2.4 4.3,4.23 4.34,8.62 3.07,14.26 q -2.19,9.76 -4.28,20.15 -3.68,18.29 -1.59,36.32 0.77,6.71 3.82,13.2 c 2.7,5.74 8.21,9.35 14.18,4.82 3.8,-2.88 5.62,-7.61 6.93,-12.2 q 0.71,-2.5 0.23,-4.93 c -2.11,-10.52 -1.97,-22 -1.06,-32.26 1.38,-15.52 6.18,-31 16.12,-42.92 7.33,-8.79 18.12,-12.23 29.14,-9.2 5.63,1.56 11.3,6.17 14.42,11.07 q 1.32,2.08 1.2,-0.38 c -0.1,-1.88 -0.45,-4.29 0.81,-5.86 q 1.18,-1.45 2.51,-1.67 5.31,-0.91 11.3,0.94 c 4.13,1.27 9.57,2.86 9.03,8.45 -0.35,3.57 -0.75,7.12 -0.78,10.67 -0.21,19.24 -1.35,40.05 -0.15,60.34 q 0.12,2.05 0.47,4.01 c 0.87,4.94 1.3,11.63 5.92,14.7 10.83,7.2 18.43,-16.18 20.16,-22.6 q 1.12,-4.16 1.1,-10.15 -0.13,-30.69 0.51,-63.48 0.12,-5.79 6.26,-4.91 6.35,0.9 13.21,3.17 c 2.72,0.89 3.32,3.26 3.32,5.8 q -0.06,18.27 -0.06,37.42 0,0.8 0.4,1.57 0.37,0.71 0.47,-0.08 z m -406.9,2.56 c -0.14,1.95 -0.64,3.77 -0.71,5.63 q -0.3,9.03 -0.01,15.18 0.51,10.79 4.34,20.79 1.45,3.77 4.27,6.48 6.56,6.28 14.18,0.36 c 6.77,-5.26 10.64,-15.66 12.16,-23.77 q 1.04,-5.5 1.8,-12.15 0.46,-3.92 0.44,-7.6 c -0.04,-5.67 0.21,-11.15 -0.61,-16.84 -0.89,-6.14 -2,-11.91 -5.74,-16.88 -3.85,-5.11 -10.5,-6.88 -16.13,-3.69 -6.88,3.88 -10.64,13.17 -12.14,20.56 -0.81,3.94 -1.57,7.92 -1.85,11.93 z m 111.92,-18.52 q -3.7,10.28 -4.66,21.29 -1.31,14.91 0.24,25.45 1.39,9.52 4.98,16.38 2.36,4.49 7.12,6.3 c 2.7,1.02 5.39,0.26 7.84,-1.06 5.29,-2.85 8.83,-8.69 10.89,-14.25 4.24,-11.42 5.48,-22.95 5.63,-35.06 q 0.11,-8.72 -1.14,-17.65 c -1.06,-7.55 -4.89,-16.52 -13.68,-16.88 -8.53,-0.35 -14.69,8.45 -17.22,15.48 z m 201.44,-15.34 c -5.34,0.79 -10.12,6.36 -12.24,11.05 -3.69,8.2 -5.04,17.2 -5.77,25.95 q -0.61,7.24 -0.08,20.44 c 0.09,2.34 0.65,4.73 1,7.06 q 0.96,6.5 3.62,12.38 2.75,6.08 8.31,8.02 c 4.77,1.66 10.74,-2.65 13.38,-6.22 3.87,-5.23 5.55,-10.4 7.43,-16.35 q 1.15,-3.66 1.67,-7.52 c 1.73,-12.79 2.08,-23.07 0.42,-35.31 -1.33,-9.79 -6.12,-21.22 -17.74,-19.5 z M 841.48,916.32 c -5.85,8 -14.22,23.46 -7.99,33.13 3.68,5.71 10.49,6.74 16.38,3.82 q 6.17,-3.06 8.9,-11.08 2.9,-8.55 3.74,-17.04 c 0.39,-3.86 1.14,-7.8 1.17,-11.59 q 0.08,-10.65 0.08,-21.92 a 0.3,0.3 0 0 0 -0.51,-0.21 q -12.41,12.11 -21.77,24.89 z"
       id="path155"
       style="stroke-width:1.03318617;fill:#ffffff;fill-opacity:1;stroke-dasharray:none" />
  </g>
</svg>
