<?xml version="1.0" encoding="UTF-8" standalone="no"?>
<svg aria-label="Like" fill="currentColor" height="24" role="img" viewBox="0 0 24 24" width="24" version="1.1" id="svg1" sodipodi:docname="heart-red.svg" inkscape:version="1.3 (0e150ed6c4, 2023-07-21)"
   xmlns:inkscape="http://www.inkscape.org/namespaces/inkscape"
   xmlns:sodipodi="http://sodipodi.sourceforge.net/DTD/sodipodi-0.dtd"
   xmlns="http://www.w3.org/2000/svg"
   xmlns:svg="http://www.w3.org/2000/svg">
   <defs id="defs1" />
   <sodipodi:namedview id="namedview1" pagecolor="#ffffff" bordercolor="#999999" borderopacity="1" inkscape:showpageshadow="2" inkscape:pageopacity="0" inkscape:pagecheckerboard="0" inkscape:deskcolor="#d1d1d1" inkscape:zoom="25.956712" inkscape:cx="18.51159" inkscape:cy="18.164858" inkscape:window-width="1920" inkscape:window-height="1164" inkscape:window-x="-11" inkscape:window-y="-11" inkscape:window-maximized="1" inkscape:current-layer="svg1" />
   <title id="title1">Like</title>
   <path d="M 16.665319,1.907025 C 14.874397,1.8477919 13.155053,2.6353353 11.995132,4.0461987 10.836315,2.6395892 9.1218932,1.8526595 7.3346813,1.907025 3.594969,2.0580932 0.67631374,5.3023906 0.80401354,9.1663365 c 0,3.6306615 2.48258836,5.8603505 4.88242376,8.0156155 0.2755186,0.247408 0.553958,0.496828 0.8304503,0.751276 l 0.9998502,0.923254 c 1.0904312,1.071868 2.2336136,2.08497 3.4249972,3.035273 0.643915,0.430693 1.472615,0.430693 2.116529,0 1.229311,-0.979313 2.407668,-2.025047 3.530143,-3.132828 l 0.897627,-0.828717 c 0.285253,-0.261488 0.574402,-0.52197 0.861604,-0.778429 2.272298,-2.03659 4.848349,-4.344726 4.848349,-7.9854445 C 23.323686,5.3023906 20.405031,2.0580932 16.665319,1.907025 Z" id="path1" sodipodi:nodetypes="cccccccccccccc" style="fill:#000000;fill-opacity:1;stroke:#ffffff;stroke-width:1.6;stroke-dasharray:none;stroke-opacity:1" />
</svg>
